PathFileType	4	(X/Y/Z)	C:/Users/beibeiliu/ov580/test_trc/User2\sequence.18_training_dense_left.trc
DataRate	CameraRate	NumFrames	NumMarkers	Units	OrigDataRate	OrigDataStartFrame	OrigNumFrames
120	120	15	19	mm	120	1	429
Frame#	Time	ThumbCMC			ThumbMCP			ThumbIP			ThumbTip			IndexMCP			IndexPIP			IndexTip			MiddleMCP			MiddlePIP			MiddleTip			RingMCP			RingPIP			RingTip			PinkyMCP			PinkyPIP			PinkyTip			BackHand1			BackHand2			BackHand3	
		X0	Y0	Z0	X1	Y1	Z1	X2	Y2	Z2	X3	Y3	Z3	X4	Y4	Z4	X5	Y5	Z5	X6	Y6	Z6	X7	Y7	Z7	X8	Y8	Z8	X9	Y9	Z9	X10	Y10	Z10	X11	Y11	Z11	X12	Y12	Z12	X13	Y13	Z13	X14	Y14	Z14	X15	Y15	Z15	X16	Y16	Z16	X17	Y17	Z17	X18	Y18	Z18	
0	0	-142.363	-22.4531	60.3077	-124.478	-28.5315	38.3355	-101.833	-30.7264	11.4134	-85.7059	-36.2368	-8.80375	-161.042	-25.0756	-22.1947	-154.396	-28.4426	-48.1417	-150.727	-29.8838	-80.6828	-187.609	-24.8596	-30.1366	-190.818	-29.2364	-61.4662	-195.342	-35.9386	-92.6303	-211.41	-30.5761	-23.685	-217.375	-33.7781	-46.0106	-222.792	-39.7894	-74.6046	-234.866	-40.9622	-2.08771	-242.705	-45.2355	-22.224	-249.329	-43.195	-47.5775	-208.874	-15.5707	28.661	-208.66	-3.39475	64.5462	-174.732	-5.00291	42.4869	
1	0.00833333	-144.832	-23.692	57.9194	-124.533	-27.6712	36.8936	-107.398	-33.1402	10.3689	-86.9553	-37.91	-8.59201	-162.404	-25.2265	-24.1237	-156.836	-27.9804	-52.912	-153.616	-31.2197	-82.2807	-187.902	-25.2687	-33.1004	-190.561	-29.2127	-59.4142	-196.257	-36.0429	-93.0596	-216.704	-30.8872	-21.531	-217.64	-35.0308	-46.8725	-224.324	-40.4581	-79.9099	-232.463	-41.5599	1.04072	-245.921	-44.7185	-27.1551	-252.997	-42.5677	-45.6894	-211.903	-16.6338	32.2541	-208.889	-3.2471	61.129	-174.909	-6.48195	40.486	
2	0.0166667	-145.263	-24.08	59.6038	-126.462	-28.6436	39.3708	-103.918	-32.7107	7.49551	-89.8251	-39.0071	-5.04653	-157.513	-25.3609	-27.455	-157.469	-28.5018	-51.0484	-150.344	-30.8554	-78.2939	-190.62	-24.9924	-30.0414	-191.289	-29.9218	-60.8259	-193.459	-35.3267	-91.7089	-211.741	-30.5668	-20.4439	-219.017	-35.9705	-51.5125	-225.268	-41.4613	-79.0739	-234.594	-40.54	-0.130413	-245.901	-45.2235	-25.2526	-252.099	-45.1412	-47.2485	-213.101	-16.3126	31.2563	-208.721	-5.0378	60.8279	-176.936	-6.35522	43.0557	
3	0.025	-142.579	-23.202	54.6931	-127.176	-29.0923	36.1222	-105.625	-33.2685	9.41662	-88.8612	-38.9019	-3.30847	-160.36	-25.4944	-27.0014	-153.072	-27.2571	-54.1564	-155.671	-31.6385	-77.7675	-188.321	-24.9712	-28.8411	-191.835	-30.0724	-62.9972	-196.374	-35.8211	-92.3523	-211.823	-30.4571	-23.1752	-219.739	-35.5764	-50.1465	-222.278	-40.3173	-74.748	-229.913	-41.2172	0.227062	-241.623	-43.5797	-26.0185	-252.416	-42.6062	-46.8053	-211.397	-17.8477	28.41	-212.672	-5.24437	59.7292	-175.656	-6.36716	39.8473	
4	0.0333333	-146.192	-24.1093	58.3774	-125.655	-28.4638	34.2359	-102.558	-32.1482	11.1466	-85.5327	-37.6095	-4.54197	-157.622	-24.1285	-23.7008	-154.854	-26.739	-49.4216	-151.008	-29.7207	-77.3027	-186.148	-23.74	-34.8112	-188.985	-30.4132	-65.4369	-193.728	-34.7356	-91.1729	-216.09	-31.2392	-21.7273	-218.642	-34.562	-51.8103	-224.937	-41.1703	-78.9318	-235.595	-41.1093	-1.17917	-240.037	-44.1354	-25.152	-252.622	-42.4705	-47.1209	-211.905	-15.6512	28.5724	-206.712	-3.79331	57.6888	-175.948	-6.91783	39.8186	
5	0.0416667	-145.9	-23.6449	54.2263	-126.7	-27.7972	35.0933	-104.966	-31.7385	7.2184	-85.1126	-36.8325	-5.77341	-156.941	-24.2629	-22.6578	-157.446	-27.893	-53.8043	-151.801	-30.3745	-77.4376	-190.232	-25.2253	-33.6199	-189.926	-29.726	-62.7973	-197.133	-36.0645	-92.1255	-216.625	-31.1955	-21.8226	-221.673	-35.2297	-51.0943	-225.999	-40.6981	-75.7246	-233.256	-40.0844	-1.33803	-240.023	-44.3172	-23.3353	-252.932	-45.1414	-46.7014	-208.474	-15.0429	31.6693	-209.133	-4.37647	59.8231	-172.783	-6.14429	40.8475	
6	0.05	-143.499	-22.7878	54.6534	-124.098	-27.3767	34.5821	-105.778	-34.0445	11.65	-87.9292	-38.0071	-5.1055	-160.582	-24.9969	-27.8279	-154.086	-27.906	-49.4707	-154.082	-30.9116	-77.8787	-191.051	-25.3621	-33.9989	-189.599	-29.6087	-60.4381	-195.301	-34.9287	-94.1542	-211.466	-30.9603	-20.4788	-219.711	-35.6252	-48.3538	-222.805	-39.8843	-80.0278	-235.425	-40.8349	-1.04542	-244.188	-44.4895	-27.9102	-253.149	-44.3397	-48.2829	-207.13	-17.064	32.3271	-210.486	-4.17772	61.5349	-176.05	-4.67964	42.0314	
7	0.0583333	-143.834	-22.5067	59.6737	-124.86	-28.3656	38.0268	-102.647	-31.753	8.4614	-85.1129	-37.3049	-3.82232	-159.667	-24.4937	-26.2676	-153.371	-28.2731	-53.9762	-155.146	-30.7385	-77.8524	-189.263	-25.5867	-33.6159	-190.791	-30.4403	-61.0762	-192.094	-36.226	-96.6686	-211.674	-31.0644	-21.7813	-222.288	-36.6371	-48.3118	-224.926	-41.4182	-75.7803	-235.81	-40.1175	-3.55983	-241.974	-44.9292	-24.6727	-253.234	-44.742	-51.0029	-212.707	-17.1499	32.6702	-210.529	-4.84069	59.8251	-173.296	-4.15176	40.9893	
8	0.0666667	-144.108	-23.4723	56.7922	-125.57	-28.7464	35.0776	-106.559	-33.7318	9.75608	-86.7698	-38.0296	-8.61735	-159.606	-23.928	-23.9864	-154.645	-27.2013	-54.8583	-149.557	-30.6034	-82.307	-188.482	-24.3927	-30.3834	-193.495	-30.5118	-64.6526	-194.434	-36.4515	-94.0203	-213.976	-30.5738	-23.1468	-221.659	-35.6321	-48.1323	-222.097	-41.5093	-79.1532	-234.755	-40.6091	0.773889	-241.332	-44.6945	-23.7526	-253.027	-44.0654	-48.6207	-210.044	-17.5629	30.8717	-211.02	-4.88931	62.9172	-174.988	-6.16211	42.5258	
9	0.075	-145.98	-24.3367	58.4266	-121.839	-28.4159	35.9575	-102.032	-32.7197	12.0704	-89.4143	-41.1326	-5.8928	-158.224	-24.0347	-25.2249	-157.185	-26.9263	-50.3702	-153.431	-29.8208	-79.7743	-187.001	-23.8149	-32.8801	-189.029	-29.106	-62.8729	-193.325	-36.7019	-92.7494	-210.764	-29.6205	-24.9195	-221.973	-34.8019	-46.7515	-222.96	-42.3437	-77.3525	-229.903	-40.394	0.0116773	-242.804	-44.6182	-26.5054	-250.189	-44.6945	-48.9506	-212.665	-16.92	31.6231	-210.665	-4.99188	58.9388	-173.835	-5.57189	43.2941	
10	0.0833333	-143.478	-23.3967	56.3745	-123.577	-28.8219	36.2947	-103.656	-34.239	9.13916	-87.0204	-40.0876	-8.91569	-160.092	-23.4245	-26.3639	-153.951	-25.9443	-51.5391	-153.586	-30.4253	-82.4439	-187.892	-22.7117	-34.3745	-189.374	-28.8654	-62.0378	-196.519	-37.984	-92.6598	-215.885	-30.0589	-22.2434	-220.302	-34.5171	-47.9366	-220.868	-42.9743	-79.5829	-229.522	-39.2214	-0.80678	-241.007	-42.637	-27.1438	-248.35	-44.9804	-49.9932	-211.845	-15.9981	32.2321	-209.208	-5.97364	58.7203	-175.313	-4.73732	42.5308	
11	0.0916667	-145.902	-25.3813	59.228	-120.628	-28.0479	37.4335	-102.815	-33.124	9.05922	-92.5523	-41.1159	-10.3608	-158.288	-20.8455	-26.5865	-153.961	-24.1957	-54.5349	-154.26	-30.2662	-79.4597	-187.359	-20.3944	-31.1907	-191.578	-27.4952	-64.6392	-194.377	-41.7647	-96.4989	-213.406	-27.8323	-20.7165	-215.925	-33.4361	-48.7469	-220.417	-45.127	-76.5927	-228.742	-36.3742	-6.4953	-237.216	-41.9791	-27.067	-248.216	-46.7783	-53.5731	-211.176	-13.595	30.4528	-210.839	-4.29336	61.3118	-171.578	-6.17038	41.765	
12	0.1	-146.635	-23.2625	54.9487	-126.78	-28.9287	34.9175	-104.19	-32.0755	7.08455	-92.5588	-37.7594	-13.635	-158.224	-17.2175	-27.3919	-153.524	-21.1033	-54.4771	-154.88	-31.5611	-79.2681	-185.533	-17.5807	-33.1198	-190.61	-28.2718	-66.6144	-193.742	-47.6521	-91.576	-214.668	-25.0367	-22.4161	-213.899	-33.5922	-53.179	-215.757	-52.4787	-77.2543	-230.75	-35.3633	-2.01182	-237.12	-40.5777	-28.416	-240.875	-50.7265	-57.9007	-206.798	-14.1794	29.4765	-208.045	-3.96393	64.0685	-173.73	-4.86452	44.8238	
13	0.108333	-144.671	-23.3088	58.4853	-123.821	-25.3876	32.4876	-107.831	-28.492	2.25887	-98.0195	-35.6476	-19.7709	-163.733	-14.4316	-23.7209	-159.445	-17.9402	-53.4113	-159.119	-40.0304	-81.2466	-187.478	-15.5594	-35.0756	-188.203	-31.2461	-66.4848	-188.396	-59.7546	-84.3291	-211.23	-22.8309	-25.361	-213.708	-33.5867	-50.8465	-208.827	-60.1915	-71.3227	-226.734	-31.5065	-7.28861	-234.087	-42.2074	-36.2215	-229.841	-58.2358	-57.6333	-207.93	-13.3197	29.7199	-208.415	-2.11279	61.5466	-174.04	-0.854867	46.7026	
14	0.116667	-144.021	-20.5325	56.9063	-125.942	-23.9757	33.9742	-110.433	-27.0955	1.76619	-105.252	-33.6828	-22.1936	-166.384	-12.6066	-27.217	-165.263	-21.4638	-56.0235	-163.325	-52.1491	-72.1452	-186.792	-16.1915	-32.8392	-187.225	-36.4221	-64.3618	-185.109	-78.0406	-68.3166	-210.206	-22.6563	-25.576	-211.231	-38.8631	-53.2514	-201.499	-69.2312	-60.2042	-229.916	-31.5374	-8.05597	-231.12	-42.245	-35.0336	-220.905	-70.8579	-53.4508	-212.682	-11.6067	32.1587	-208.229	-4.53604	60.892	-176.176	-1.10393	43.6508	
